<?xml version="1.0" encoding="UTF-8"?>
<svg id="Layer_2" data-name="Layer 2" xmlns="http://www.w3.org/2000/svg" viewBox="0 0 567.49 273.64">
  <g id="_图层_1" data-name="图层 1">
    <g>
      <g>
        <path d="M560.13,66.25h7.37v75.65c-.35.02-.68.05-1,.05-4.29,0-8.57-.03-12.86.03-.84.01-1.15-.26-1.4-1.03-7.55-23.27-15.13-46.53-22.7-69.79-.4-1.24-.81-2.47-1.39-3.68v74.4h-7.31v-75.66h1.11c4.25,0,8.51.02,12.76-.02.84,0,1.21.22,1.48,1.05,7.02,21.74,14.07,43.47,21.11,65.2.88,2.72,1.77,5.44,2.83,8.15v-74.35Z"/>
        <path d="M369.12,103.2c3.1.74,5.52,2.23,7.53,4.45,2.06,2.28,3.28,4.94,3.72,7.94.66,4.53.82,9.08-.66,13.51-2.01,6.03-6.22,9.78-12.22,11.64-2.83.88-5.74,1.19-8.68,1.21-6.88.03-13.76.01-20.65.01-.23,0-.46,0-.74,0v-75.73h1.04c6.34,0,12.69.01,19.03,0,3.78-.01,7.48.45,10.97,1.98,5.3,2.33,8.84,6.28,10.05,11.99.92,4.35,1.01,8.79-.17,13.13-1.25,4.59-4.19,7.75-8.58,9.57-.15.06-.3.14-.63.31ZM344.89,134.86c.28.02.48.05.67.05,4.12,0,8.23.02,12.35,0,2.47-.02,4.91-.21,7.27-1.04,3.32-1.16,5.91-3.16,7.08-6.56,1.46-4.21,1.35-8.49,0-12.71-.81-2.53-2.55-4.35-4.89-5.54-2.07-1.05-4.29-1.68-6.61-1.73-5.23-.11-10.46-.12-15.69-.17-.05,0-.11.06-.2.12v27.6ZM344.88,100.06c4.18,0,8.26.1,12.33-.04,2.2-.07,4.46-.3,6.58-.89,4.01-1.11,6.81-3.72,7.39-7.95.39-2.88.3-5.84.15-8.76-.1-2.04-1-3.9-2.47-5.42-2.45-2.53-5.57-3.55-8.95-3.66-4.79-.16-9.58-.07-14.37-.08-.22,0-.44.06-.66.1v26.7Z"/>
        <path d="M257.53,108.97c4.99,11,9.94,21.91,14.97,32.97-2.88,0-5.56.02-8.25-.04-.26,0-.6-.46-.74-.78-2.72-6.05-5.42-12.11-8.12-18.17-1.67-3.75-3.33-7.51-5.04-11.25-.14-.31-.58-.68-.88-.68-4.66,0-9.31.06-13.97.11-.16,0-.32.04-.55.08v30.66h-7.45v-75.65h1.11c6.08,0,12.15,0,18.23,0,3.5,0,6.92.42,10.2,1.76,4.94,2.02,8.47,5.53,10.16,10.51,2.27,6.65,2.29,13.48.04,20.17-1.54,4.57-4.61,7.95-9.07,9.96-.18.08-.35.19-.64.34ZM234.97,103.86c2.85,0,5.62.05,8.38-.01,2.73-.06,5.49,0,8.17-.42,4.22-.66,7.36-2.99,8.69-7.21,1.47-4.64,1.3-9.39.33-14.1-.46-2.24-1.66-4.17-3.44-5.7-2.41-2.07-5.31-2.77-8.35-2.86-4.42-.14-8.84-.07-13.26-.08-.16,0-.32.05-.52.08v30.31Z"/>
        <path d="M490.57,108.97c4.99,10.99,9.94,21.91,14.97,32.98-2.84,0-5.52.02-8.2-.04-.26,0-.6-.46-.74-.78-2.8-6.2-5.57-12.41-8.35-18.62-1.61-3.6-3.23-7.19-4.83-10.79-.2-.45-.37-.76-.99-.75-4.62.08-9.24.11-13.87.16-.16,0-.32.03-.54.05v30.68h-7.45v-75.64c.36,0,.69,0,1.02,0,6.11,0,12.22-.01,18.32,0,3.67,0,7.26.45,10.66,1.96,4.74,2.09,8.14,5.57,9.74,10.4,2.19,6.59,2.25,13.35.04,19.99-1.53,4.59-4.61,7.94-9.02,10.01-.21.1-.42.21-.76.39ZM468.03,73.46v30.39c2.34,0,4.62.05,6.9-.01,3.23-.08,6.48-.05,9.69-.43,4.65-.55,8.25-4.24,9.12-8.81.62-3.28.58-6.58.32-9.88-.2-2.44-.91-4.77-2.42-6.76-2.03-2.67-4.86-3.96-8.09-4.23-3.12-.26-6.26-.22-9.4-.28-2.02-.04-4.03,0-6.12,0Z"/>
        <path d="M397.72,104.07c0-5.74,0-11.48,0-17.21,0-4.4.81-8.58,3.35-12.3,3.12-4.57,7.36-7.42,12.81-8.43,4.28-.79,8.55-.71,12.69.69,5.89,2,10.04,5.89,12.28,11.76,1.03,2.69,1.35,5.5,1.36,8.34.04,11.44.04,22.88,0,34.32-.01,4.35-.81,8.51-3.29,12.22-3.13,4.67-7.43,7.53-12.96,8.54-5.28.96-10.44.63-15.3-1.77-4.57-2.26-7.8-5.79-9.6-10.61-1.02-2.73-1.33-5.56-1.34-8.44-.02-5.7,0-11.41,0-17.11ZM405.37,103.98s-.05,0-.08,0c0,5.63-.04,11.27.02,16.9.02,1.64.13,3.32.5,4.91.81,3.43,2.73,6.13,5.91,7.81,3.07,1.62,6.36,1.89,9.74,1.5,6.34-.73,11.02-5.78,11.06-12.16.08-12.18.05-24.36.03-36.54,0-1.34-.16-2.7-.45-4-.73-3.28-2.57-5.84-5.46-7.57-3.22-1.93-6.76-2.19-10.38-1.74-6.29.79-10.77,5.63-10.88,11.96-.11,6.31-.02,12.62-.02,18.93Z"/>
        <path d="M295.24,107.83v26.83h27.28v7.21h-34.71v-75.58h34.72v7.13h-27.25v26.98h25v7.43h-25.03Z"/>
      </g>
      <g>
        <path d="M191.55,215.8v57.83h-27.36v-92.82c0-54.52-44.21-98.73-98.73-98.73H0v-27.36h30.47c88.59,0,161.08,72.49,161.08,161.08Z"/>
        <path d="M109.45,161.08v57.83s27.36,0,27.36,0v-92.82c0-54.52,44.21-98.73,98.73-98.73h65.45s0-27.36,0-27.36h-30.47C181.94,0,109.45,72.49,109.45,161.08Z"/>
      </g>
    </g>
  </g>
</svg>